<svg xmlns="http://www.w3.org/2000/svg" viewBox="0 0 418.27 81.91"><defs><style>.cls-1{fill:#fcd0ba;}</style></defs><title>logo_okonomik_final</title><g id="Layer_2" data-name="Layer 2"><g id="Layer_1-2" data-name="Layer 1"><path class="cls-1" d="M.57,80.54l6.88-7.91A29.09,29.09,0,0,1,0,52.81c0-15.58,11.34-29,30.13-29a32.28,32.28,0,0,1,16.5,4.24l2.52-2.87H59.69L52.81,33a28.67,28.67,0,0,1,7.56,19.82c0,15.58-11.22,29.1-30.24,29.1a31.38,31.38,0,0,1-16.61-4.35l-2.64,3ZM19.36,59.11,35.63,40.67a12.18,12.18,0,0,0-5.5-1.26c-7.68,0-11.91,6.07-11.91,13.4A15.86,15.86,0,0,0,19.36,59.11Zm22.91-6.3A16.69,16.69,0,0,0,41,46.4L24.52,65.07a10.92,10.92,0,0,0,5.61,1.26C37.92,66.33,42.27,60.26,42.27,52.81Z"/><path class="cls-1" d="M100.13,80.54,88,61l-5.27,6.3V80.54H65.07V4.12H82.71V47.31L99.55,25.2h21.31L100.47,50.41l21.42,30.13Z"/><path class="cls-1" d="M116.17,52.81c0-15.58,11.34-29,30.13-29,19,0,30.24,13.4,30.24,29s-11.23,29.1-30.24,29.1C127.51,81.91,116.17,68.39,116.17,52.81Zm42.27,0c0-7.33-4.35-13.4-12.14-13.4s-11.92,6.07-11.92,13.4,4.24,13.52,11.92,13.52S158.44,60.26,158.44,52.81Z"/><path class="cls-1" d="M218.7,80.54v-32c0-6.75-3.55-9.16-9-9.16a13.65,13.65,0,0,0-10.77,5.38V80.54H181.24V25.2h17.64V32c3.32-3.89,9.85-8.13,19.13-8.13,12.6,0,18.33,7.33,18.33,17.53V80.54Z"/><path class="cls-1" d="M240.92,52.81c0-15.58,11.35-29,30.13-29,19,0,30.25,13.4,30.25,29s-11.23,29.1-30.25,29.1C252.27,81.91,240.92,68.39,240.92,52.81Zm42.28,0c0-7.33-4.36-13.4-12.15-13.4s-11.91,6.07-11.91,13.4,4.24,13.52,11.91,13.52S283.2,60.26,283.2,52.81Z"/><path class="cls-1" d="M375.76,80.54V46.86c0-4.24-2.06-7.45-7.33-7.45-4.81,0-8.25,3.09-10,5.38V80.54H340.82V46.86c0-4.24-1.95-7.45-7.33-7.45-4.7,0-8,3.09-9.85,5.38V80.54H306V25.2h17.64V32c2.4-3.2,9.51-8.13,18.21-8.13,7.91,0,13.41,3.32,15.7,9.85a23.81,23.81,0,0,1,19.13-9.85c10.2,0,16.61,5.27,16.61,16.61v40.1Z"/><path class="cls-1" d="M398.1,10.08a10.09,10.09,0,0,1,20.17,0,10.09,10.09,0,1,1-20.17,0Zm1.26,70.46V25.2H417V80.54Z"/></g></g></svg>